<?xml version="1.0" standalone="no"?><!DOCTYPE svg PUBLIC "-//W3C//DTD SVG 1.1//EN" "http://www.w3.org/Graphics/SVG/1.1/DTD/svg11.dtd"><svg t="1532592575931" class="icon" style="" viewBox="0 0 1024 1024" version="1.1" xmlns="http://www.w3.org/2000/svg" p-id="5121" xmlns:xlink="http://www.w3.org/1999/xlink" width="200" height="200"><defs><style type="text/css"></style></defs><path d="M656 137.28A446.72 446.72 0 0 0 64 562.24 681.6 681.6 0 0 0 82.56 723.2a19.2 19.2 0 0 0 17.92 17.92h818.56a29.76 29.76 0 0 0 22.4-17.92A1040 1040 0 0 0 960 562.24 443.2 443.2 0 0 0 656 137.28z m-144 67.04a42.4 42.4 0 0 1 44.8 44.8 42.24 42.24 0 0 1-44.8 44.64 42.24 42.24 0 0 1-44.8-44.64 42.4 42.4 0 0 1 44.8-44.8zM198.88 606.88a44.8 44.8 0 1 1 0-89.44 44.8 44.8 0 1 1 0 89.44z m125.28-232.48a43.52 43.52 0 0 1-62.72 0 54.56 54.56 0 0 1-4.48-67.2 43.36 43.36 0 0 1 62.72 0 54.24 54.24 0 0 1 4.48 67.2zM512 651.68c-49.28 0-93.92-44.8-80-89.44S512 384 512 384s67.04 134.08 80 178.88-30.72 88.8-80 88.8zM767.04 374.4a44.32 44.32 0 1 1 0-62.72 53.76 53.76 0 0 1 0 62.72z m58.08 232.48a44.8 44.8 0 1 1 44.8-44.64 42.08 42.08 0 0 1-44.8 44.64zM814.56 874.08H209.44a32 32 0 1 1 0-64h605.12a32 32 0 0 1 0 64z" p-id="5122"></path></svg>