<?xml version="1.0" standalone="no"?><!DOCTYPE svg PUBLIC "-//W3C//DTD SVG 1.1//EN" "http://www.w3.org/Graphics/SVG/1.1/DTD/svg11.dtd"><svg t="1532592522523" class="icon" style="" viewBox="0 0 1024 1024" version="1.1" xmlns="http://www.w3.org/2000/svg" p-id="3828" xmlns:xlink="http://www.w3.org/1999/xlink" width="200" height="200"><defs><style type="text/css"></style></defs><path d="M173.8 377.5c6 6 14.1 9.4 22.6 9.4s16.6-3.4 22.6-9.4l148.6-148.6c12.5-12.5 12.5-32.8 0-45.3-12.5-12.5-32.8-12.5-45.3 0L196.4 309.6l-70.9-70.9c-12.5-12.5-32.8-12.5-45.3 0-12.5 12.5-12.5 32.8 0 45.3L173.8 377.5z" p-id="3829"></path><path d="M406.1 64 42.5 64l-0.9 0c-23 0-41.6 18.6-41.6 41.9L0 469.5l0 1.2c0 23 18.6 41.3 41.6 41.3l363.3 0 1.2 0c23 0 41.9-18.3 41.9-41.3l0-364.1 0-0.6C448 82.6 429.1 64 406.1 64zM384 448 64 448l0-320 320 0L384 448z" p-id="3830"></path><path d="M576 256l416 0c17.7 0 32-14.3 32-32s-14.3-32-32-32L576 192c-17.7 0-32 14.3-32 32S558.3 256 576 256z" p-id="3831"></path><path d="M992 384 576 384c-17.7 0-32 14.3-32 32s14.3 32 32 32l416 0c17.7 0 32-14.3 32-32S1009.7 384 992 384z" p-id="3832"></path><path d="M173.8 889.5c6.2 6.2 14.4 9.4 22.6 9.4s16.4-3.1 22.6-9.4l148.6-148.6c12.5-12.5 12.5-32.8 0-45.3-12.5-12.5-32.8-12.5-45.3 0L196.4 821.6l-70.9-70.9c-12.5-12.5-32.8-12.5-45.3 0-12.5 12.5-12.5 32.8 0 45.3L173.8 889.5z" p-id="3833"></path><path d="M406.1 576 42.5 576l-0.9 0c-23 0-41.6 18.6-41.6 41.9l0 363.5 0 1.2c0 23 18.6 41.3 41.6 41.3l363.3 0 1.2 0c23 0 41.9-18.3 41.9-41.3L448 618.5l0-0.6C448 594.6 429.1 576 406.1 576zM384 960 64 960l0-320 320 0L384 960z" p-id="3834"></path><path d="M992 704 576 704c-17.7 0-32 14.3-32 32s14.3 32 32 32l416 0c17.7 0 32-14.3 32-32S1009.7 704 992 704z" p-id="3835"></path><path d="M992 896 576 896c-17.7 0-32 14.3-32 32s14.3 32 32 32l416 0c17.7 0 32-14.3 32-32S1009.7 896 992 896z" p-id="3836"></path></svg>