<?xml version="1.0" standalone="no"?><!DOCTYPE svg PUBLIC "-//W3C//DTD SVG 1.1//EN" "http://www.w3.org/Graphics/SVG/1.1/DTD/svg11.dtd"><svg t="1544251414671" class="icon" style="" viewBox="0 0 1024 1024" version="1.1" xmlns="http://www.w3.org/2000/svg" p-id="9753" xmlns:xlink="http://www.w3.org/1999/xlink" width="128" height="128"><defs><style type="text/css"></style></defs><path d="M104.296296 105.793372h199.610137a9.980507 9.980507 0 0 1 9.980507 9.980507v199.610137a9.980507 9.980507 0 0 1-9.980507 9.980506H104.296296a9.980507 9.980507 0 0 1-9.980507-9.980506V115.773879a9.980507 9.980507 0 0 1 9.980507-9.980507z m307.898636 0h199.610136a9.980507 9.980507 0 0 1 9.980507 9.980507v199.610137a9.980507 9.980507 0 0 1-9.980507 9.980506h-199.610136a9.980507 9.980507 0 0 1-9.980507-9.980506V115.773879a9.980507 9.980507 0 0 1 9.980507-9.980507z m307.898635 0h199.610137a9.980507 9.980507 0 0 1 9.980507 9.980507v199.610137a9.980507 9.980507 0 0 1-9.980507 9.980506H720.093567a9.980507 9.980507 0 0 1-9.980507-9.980506V115.773879a9.980507 9.980507 0 0 1 9.980507-9.980507zM104.296296 404.210526h199.610137a9.980507 9.980507 0 0 1 9.980507 9.980507v199.610137a9.980507 9.980507 0 0 1-9.980507 9.980506H104.296296a9.980507 9.980507 0 0 1-9.980507-9.980506V414.191033a9.980507 9.980507 0 0 1 9.980507-9.980507z m307.898636 0h199.610136a9.980507 9.980507 0 0 1 9.980507 9.980507v199.610137a9.980507 9.980507 0 0 1-9.980507 9.980506h-199.610136a9.980507 9.980507 0 0 1-9.980507-9.980506V414.191033a9.980507 9.980507 0 0 1 9.980507-9.980507z m307.898635 0h199.610137a9.980507 9.980507 0 0 1 9.980507 9.980507v199.610137a9.980507 9.980507 0 0 1-9.980507 9.980506H720.093567a9.980507 9.980507 0 0 1-9.980507-9.980506V414.191033a9.980507 9.980507 0 0 1 9.980507-9.980507zM104.296296 699.633528h199.610137a9.980507 9.980507 0 0 1 9.980507 9.980507v199.610137a9.980507 9.980507 0 0 1-9.980507 9.980506H104.296296a9.980507 9.980507 0 0 1-9.980507-9.980506V709.614035a9.980507 9.980507 0 0 1 9.980507-9.980507z m307.898636 0h199.610136a9.980507 9.980507 0 0 1 9.980507 9.980507v199.610137a9.980507 9.980507 0 0 1-9.980507 9.980506h-199.610136a9.980507 9.980507 0 0 1-9.980507-9.980506V709.614035a9.980507 9.980507 0 0 1 9.980507-9.980507z m307.898635 0h199.610137a9.980507 9.980507 0 0 1 9.980507 9.980507v199.610137a9.980507 9.980507 0 0 1-9.980507 9.980506H720.093567a9.980507 9.980507 0 0 1-9.980507-9.980506V709.614035a9.980507 9.980507 0 0 1 9.980507-9.980507z" fill="#1296db" p-id="9754"></path></svg>