<?xml version="1.0" standalone="no"?><!DOCTYPE svg PUBLIC "-//W3C//DTD SVG 1.1//EN" "http://www.w3.org/Graphics/SVG/1.1/DTD/svg11.dtd"><svg t="1544969270866" class="icon" style="" viewBox="0 0 1560 1024" version="1.1" xmlns="http://www.w3.org/2000/svg" p-id="4713" xmlns:xlink="http://www.w3.org/1999/xlink" width="195" height="128"><defs><style type="text/css"></style></defs><path d="M1560.380952 877.714286V146.285714L926.47619 512zM1487.238095 19.504762c-19.504762-12.190476-43.885714-19.504762-70.704762-19.504762H141.409524c-24.380952 0-48.761905 7.314286-70.704762 19.504762L780.190476 426.666667 1487.238095 19.504762zM70.704762 1004.495238c21.942857 12.190476 46.32381 19.504762 70.704762 19.504762h1277.561905c24.380952 0 48.761905-7.314286 70.704761-17.066667L780.190476 597.333333 70.704762 1004.495238zM0 146.285714v731.428572l633.904762-365.714286z" fill="#00237A" p-id="4714"></path><path d="M658.285714 497.371429L2.438095 119.466667c-2.438095 4.87619-2.438095 12.190476-2.438095 19.504762V146.285714l633.904762 365.714286 24.380952-14.628571zM902.095238 526.628571l655.847619 380.342858c0-7.314286 2.438095-12.190476 2.438095-19.504762V877.714286L926.47619 512l-24.380952 14.628571zM1543.314286 953.295238L853.333333 553.447619l-73.142857 41.447619 709.485714 409.6c21.942857-12.190476 41.447619-29.257143 53.638096-51.2zM17.066667 70.704762L707.047619 470.552381l73.142857-41.447619L70.704762 19.504762C48.761905 31.695238 31.695238 48.761905 17.066667 70.704762z" fill="#FFFFFF" p-id="4715"></path><path d="M17.066667 70.704762c-7.314286 14.628571-12.190476 31.695238-14.628572 48.761905L658.285714 497.371429l48.761905-29.257143L17.066667 70.704762zM853.333333 553.447619L1543.314286 950.857143c7.314286-14.628571 12.190476-29.257143 14.628571-46.32381L902.095238 526.628571l-48.761905 26.819048z" fill="#CF142B" p-id="4716"></path><path d="M755.809524 582.704762L48.761905 989.866667l21.942857 14.628571L780.190476 597.333333l-24.380952-14.628571zM17.066667 953.295238L707.047619 553.447619 633.904762 512 0 877.714286v7.314285c0 24.380952 7.314286 46.32381 17.066667 68.266667zM804.571429 441.295238L1511.619048 34.133333l-21.942858-14.628571L780.190476 426.666667l24.380953 14.628571zM1543.314286 73.142857L853.333333 470.552381l73.142857 41.447619L1560.380952 146.285714v-7.314285c0-24.380952-7.314286-46.32381-17.066666-65.828572z" fill="#FFFFFF" p-id="4717"></path><path d="M17.066667 953.295238c7.314286 14.628571 19.504762 26.819048 31.695238 39.009524L755.809524 585.142857l-48.761905-29.257143L17.066667 953.295238zM780.190476 512l-24.380952 41.447619-24.380953-12.190476-24.380952 12.190476 48.761905 29.257143 48.761905-29.257143z" fill="#CF142B" p-id="4718"></path><path d="M755.809524 553.447619l24.380952-41.447619-48.761905 29.257143zM1543.314286 73.142857c-7.314286-14.628571-19.504762-26.819048-31.695238-39.009524L804.571429 441.295238l48.761904 29.257143L1543.314286 73.142857z" fill="#CF142B" p-id="4719"></path><path d="M780.190476 512l24.380953-41.447619 24.380952 12.190476 24.380952-12.190476-48.761904-29.257143-48.761905 29.257143z" fill="#CF142B" p-id="4720"></path><path d="M780.190476 512l48.761905-29.257143-24.380952-12.190476z" fill="#CF142B" p-id="4721"></path><path d="M1560.380952 390.095238H902.095238V0H658.285714v390.095238H0v243.809524h658.285714v390.095238h243.809524V633.904762h658.285714z" fill="#FFFFFF" p-id="4722"></path><path d="M1560.380952 438.857143H853.333333V0h-146.285714v438.857143H0v146.285714h707.047619v438.857143h146.285714V585.142857h707.047619z" fill="#CF142B" p-id="4723"></path></svg>