<?xml version="1.0" standalone="no"?><!DOCTYPE svg PUBLIC "-//W3C//DTD SVG 1.1//EN" "http://www.w3.org/Graphics/SVG/1.1/DTD/svg11.dtd"><svg t="1544968998534" class="icon" style="" viewBox="0 0 1024 1024" version="1.1" xmlns="http://www.w3.org/2000/svg" p-id="29621" xmlns:xlink="http://www.w3.org/1999/xlink" width="128" height="128"><defs><style type="text/css"></style></defs><path d="M0 590.72h1024v52.5568H0v-52.5568z m0 262.6048h1024V800.768H0v52.5568z m0-105.0624h1024v-52.5056H0v52.5056z m0-315.0848h1024V380.672H0v52.5056z m0-157.5424v52.5568h1024v-52.5568H0z m0 262.5792h1024v-52.5568H0v52.5568zM1024 170.6752H0v52.4544h1024V170.6752z" fill="#BF0A30" p-id="29622"></path><path d="M0 643.2768h1024v52.5056H0v-52.5056z m0 157.4912h1024v-52.5056H0v52.5056z m0-210.048h1024v-52.5056H0v52.5056zM1024 223.1296H0v52.5056h1024V223.1296zM0 380.672h1024v-52.5056H0v52.5056z m0 105.0112h1024v-52.5056H0v52.5056z" fill="#FFFFFF" p-id="29623"></path><path d="M0 170.6752h409.6v368H0z" fill="#002868" p-id="29624"></path><path d="M307.6352 190.3104l2.7904 8.704h9.1392l-7.3984 5.4016 2.8416 8.704-7.3984-5.4016-7.4496 5.4016 2.8416-8.704-7.3984-5.4016h9.1392l2.8928-8.704z m-2.8416 85.1712h-9.1392l7.3984 5.4016-2.8416 8.704 7.4496-5.3504 7.3984 5.3504-2.8416-8.704 7.3984-5.4016h-9.1392l-2.7904-8.704-2.8928 8.704z m0 76.4928h-9.1392l7.3984 5.4016-2.8416 8.704 7.4496-5.4016 7.3984 5.4016-2.8416-8.704 7.3984-5.4016h-9.1392l-2.7904-8.704-2.8928 8.704z m0 78.2592h-9.1392l7.3984 5.3504-2.8416 8.7552 7.4496-5.4016 7.3984 5.4016-2.8416-8.7552 7.3984-5.3504h-9.1392l-2.7904-8.7552-2.8928 8.7552z m0 74.6496h-9.1392l7.3984 5.4016-2.8416 8.704 7.4496-5.4016 7.3984 5.4016-2.8416-8.704 7.3984-5.4016h-9.1392l-2.7904-8.704-2.8928 8.704zM236.2368 199.0144H227.072l7.3984 5.4016-2.816 8.704 7.424-5.4016 7.3984 5.4016-2.816-8.704 7.424-5.4016h-9.1904l-2.816-8.704-2.8416 8.704z m0 76.4672H227.072l7.3984 5.4016-2.816 8.704 7.424-5.3504 7.3984 5.3504-2.816-8.704 7.424-5.4016h-9.1904l-2.816-8.704-2.8416 8.704z m0 76.4928H227.072l7.3984 5.4016-2.816 8.704 7.424-5.4016 7.3984 5.4016-2.816-8.704 7.424-5.4016h-9.1904l-2.816-8.704-2.8416 8.704z m0 78.2592H227.072l7.3984 5.3504-2.816 8.7552 7.424-5.4016 7.3984 5.4016-2.816-8.7552 7.424-5.3504h-9.1904l-2.816-8.7552-2.8416 8.7552z m0 74.6496H227.072l7.3984 5.4016-2.816 8.704 7.424-5.4016 7.3984 5.4016-2.816-8.704 7.424-5.4016h-9.1904l-2.816-8.704-2.8416 8.704zM167.68 199.0144h-9.1392l7.3984 5.4016-2.8416 8.704 7.4496-5.4016 7.3984 5.4016-2.8416-8.704 7.3984-5.4016h-9.1648l-2.7904-8.704-2.8672 8.704z m0 76.4672h-9.1392l7.3984 5.4016-2.8416 8.704 7.4496-5.3504 7.3984 5.3504-2.8416-8.704 7.3984-5.4016h-9.1648l-2.7904-8.704-2.8672 8.704z m0 76.4928h-9.1392l7.3984 5.4016-2.8416 8.704 7.4496-5.4016 7.3984 5.4016-2.8416-8.704 7.3984-5.4016h-9.1648l-2.7904-8.704-2.8672 8.704z m0 78.2592h-9.1392l7.3984 5.3504-2.8416 8.7552 7.4496-5.4016 7.3984 5.4016-2.8416-8.7552 7.3984-5.3504h-9.1648l-2.7904-8.7552-2.8672 8.7552z m0 74.6496h-9.1392l7.3984 5.4016-2.8416 8.704 7.4496-5.4016 7.3984 5.4016-2.8416-8.704 7.3984-5.4016h-9.1648l-2.7904-8.704-2.8672 8.704zM99.0976 199.0144h-9.1392l7.424 5.4016-2.816 8.704 7.3984-5.4016 7.424 5.4016-2.816-8.704 7.3984-5.4016h-9.1904l-2.816-8.704-2.8672 8.704z m0 76.4672h-9.1392l7.424 5.4016-2.816 8.704 7.3984-5.3504 7.424 5.3504-2.816-8.704 7.3984-5.4016h-9.1904l-2.816-8.704-2.8672 8.704z m0 76.4928h-9.1392l7.424 5.4016-2.816 8.704 7.3984-5.4016 7.424 5.4016-2.816-8.704 7.3984-5.4016h-9.1904l-2.816-8.704-2.8672 8.704z m0 78.2592h-9.1392l7.424 5.3504-2.816 8.7552 7.3984-5.4016 7.424 5.4016-2.816-8.7552 7.3984-5.3504h-9.1904l-2.816-8.7552-2.8672 8.7552z m0 74.6496h-9.1392l7.424 5.4016-2.816 8.704 7.3984-5.4016 7.424 5.4016-2.816-8.704 7.3984-5.4016h-9.1904l-2.816-8.704-2.8672 8.704zM30.5664 199.0144H21.4016l7.3984 5.4016-2.816 8.704 7.424-5.4016 7.3984 5.4016-2.816-8.704 7.3984-5.4016h-9.1392l-2.8416-8.704-2.8416 8.704z m0 76.4672H21.4016l7.3984 5.4016-2.816 8.704 7.424-5.3504 7.3984 5.3504-2.816-8.704 7.3984-5.4016h-9.1392l-2.8416-8.704-2.8416 8.704z m0 76.4928H21.4016l7.3984 5.4016-2.816 8.704 7.424-5.4016 7.3984 5.4016-2.816-8.704 7.3984-5.4016h-9.1392l-2.8416-8.704-2.8416 8.704z m0 78.2592H21.4016l7.3984 5.3504-2.816 8.7552 7.424-5.4016 7.3984 5.4016-2.816-8.7552 7.3984-5.3504h-9.1392l-2.8416-8.7552-2.8416 8.7552z m0 74.6496H21.4016l7.3984 5.4016-2.816 8.704 7.424-5.4016 7.3984 5.4016-2.816-8.704 7.3984-5.4016h-9.1392l-2.8416-8.704-2.8416 8.704zM339.7376 237.2608h-9.1392l7.424 5.3504-2.8416 8.7552 7.424-5.4016 7.3984 5.4016-2.816-8.7552 7.424-5.3504h-9.1648l-2.816-8.7552-2.8928 8.7552z m0 78.9248h-9.1392l7.424 5.4016-2.8416 8.704 7.424-5.4016 7.3984 5.4016-2.816-8.704 7.424-5.4016h-9.1648l-2.816-8.704-2.8928 8.704z m-0.6656 77.3376h-9.1648l7.424 5.4016-2.816 8.704 7.3984-5.4016 7.424 5.4016-2.816-8.704 7.3984-5.4016h-9.1648l-2.816-8.704-2.8672 8.704z m-0.6656 76.4416h-9.1904l7.424 5.4016-2.816 8.704 7.3984-5.4016 7.424 5.4016-2.8416-8.704 7.424-5.4016h-9.1648l-2.816-8.704-2.8416 8.704z m-67.2-232.704h-9.1392l7.3984 5.3504-2.8416 8.7552 7.424-5.4016 7.424 5.4016-2.8416-8.7552 7.424-5.3504h-9.1648l-2.816-8.7552-2.8672 8.7552z m0 78.9248h-9.1392l7.3984 5.4016-2.8416 8.704 7.424-5.4016 7.424 5.4016-2.8416-8.704 7.424-5.4016h-9.1648l-2.816-8.704-2.8672 8.704z m-0.7168 77.3376h-9.1648l7.424 5.4016-2.816 8.704 7.3984-5.4016 7.424 5.4016-2.816-8.704 7.3984-5.4016h-9.1648l-2.816-8.704-2.8672 8.704z m-0.6656 76.4416h-9.1392l7.3984 5.4016-2.816 8.704 7.424-5.4016 7.3984 5.4016-2.816-8.704 7.3984-5.4016h-9.1392l-2.816-8.704-2.8928 8.704zM202.624 234.5216h-9.1392l7.424 5.3504-2.8672 8.7552 7.3984-5.4016 7.4496 5.4016-2.8416-8.7552 7.3984-5.3504h-9.1392l-2.8416-8.704-2.8416 8.704z m0 78.8992h-9.1392l7.424 5.4016-2.8416 8.704 7.3984-5.3504 7.4496 5.3504-2.8416-8.704 7.3984-5.4016h-9.1648l-2.8416-8.704-2.8416 8.704z m-0.6656 77.3632h-9.1648l7.3984 5.4016-2.8416 8.704 7.4496-5.4272 7.3984 5.4016-2.8416-8.704 7.424-5.4016h-9.1904L204.8 382.08l-2.8416 8.704z m-0.7168 76.4928h-9.1392l7.424 5.3504-2.816 8.7552 7.3984-5.4016 7.424 5.4016-2.816-8.7552 7.3984-5.3504h-9.1904l-2.816-8.704-2.8672 8.704zM134.0928 233.7792H124.928l7.424 5.4016-2.8416 8.704 7.424-5.4016 7.3984 5.4016-2.816-8.704 7.424-5.4016h-9.1904l-2.816-8.704-2.8416 8.704z m0 78.8992H124.928l7.424 5.4016-2.8416 8.704 7.424-5.4016 7.3984 5.4016-2.816-8.704 7.424-5.4016h-9.1904l-2.816-8.704-2.8416 8.704z m-0.6912 77.3376h-9.1648l7.3984 5.4016-2.816 8.704 7.424-5.4016 7.3984 5.4016-2.816-8.704 7.3984-5.4016h-9.1648l-2.7904-8.704-2.8672 8.704z m-0.6912 76.4672h-9.1648l7.424 5.4016-2.816 8.704 7.3984-5.4016 7.3984 5.4016-2.816-8.704 7.424-5.4016h-9.1648l-2.8416-8.704-2.8416 8.704zM65.5104 232.3712h-9.1648l7.3984 5.4016-2.816 8.704 7.424-5.4016 7.3984 5.4016-2.816-8.704 7.424-5.4016H71.168l-2.816-8.704-2.8416 8.704z m0 78.8992h-9.1648l7.3984 5.4016-2.816 8.704 7.424-5.3504 7.3984 5.3504-2.816-8.704 7.424-5.4016H71.168l-2.816-8.704-2.8416 8.704z m-0.6912 77.4144h-9.1648l7.424 5.4016-2.816 8.704 7.3984-5.4016 7.424 5.4016-2.8416-8.704 7.424-5.4016h-9.1648l-2.8416-8.704-2.8416 8.704z m-0.6656 76.4416h-9.1648l7.3984 5.4016-2.8416 8.704 7.4496-5.4016 7.3984 5.4016-2.8416-8.704 7.424-5.4016h-9.1904l-2.7904-8.704-2.8416 8.704zM373.3504 199.0144h-9.1392l7.3984 5.4016-2.816 8.704 7.424-5.4016 7.3984 5.4016-2.816-8.704 7.3984-5.4016h-9.1648l-2.7904-8.704-2.8928 8.704z m0 76.4672h-9.1392l7.3984 5.4016-2.816 8.704 7.424-5.3504 7.3984 5.3504-2.816-8.704 7.3984-5.4016h-9.1648l-2.7904-8.704-2.8928 8.704z m0 76.4928h-9.1392l7.3984 5.4016-2.816 8.704 7.424-5.4016 7.3984 5.4016-2.816-8.704 7.3984-5.4016h-9.1648l-2.7904-8.704-2.8928 8.704z m0 78.2592h-9.1392l7.3984 5.3504-2.816 8.7552 7.424-5.4016 7.3984 5.4016-2.816-8.7552 7.3984-5.3504h-9.1648l-2.7904-8.7552-2.8928 8.7552z m0 74.6496h-9.1392l7.3984 5.4016-2.816 8.704 7.424-5.4016 7.3984 5.4016-2.816-8.704 7.3984-5.4016h-9.1648l-2.7904-8.704-2.8928 8.704z" fill="#FFFFFF" p-id="29625"></path></svg>