<?xml version="1.0" standalone="no"?><!DOCTYPE svg PUBLIC "-//W3C//DTD SVG 1.1//EN" "http://www.w3.org/Graphics/SVG/1.1/DTD/svg11.dtd"><svg t="1544969028825" class="icon" style="" viewBox="0 0 1024 1024" version="1.1" xmlns="http://www.w3.org/2000/svg" p-id="33535" xmlns:xlink="http://www.w3.org/1999/xlink" width="128" height="128"><defs><style type="text/css"></style></defs><path d="M1024 853.3248v-2.1504 2.1504z" fill="#231F20" p-id="33536"></path><path d="M0 170.6752h1024v682.6752H0z" fill="#FFFFFF" p-id="33537"></path><path d="M512 512m-168.3968 0a168.3968 168.3968 0 1 0 336.7936 0 168.3968 168.3968 0 1 0-336.7936 0Z" fill="#CE1126" p-id="33538"></path><path d="M367.9744 424.9856a84.1216 84.1216 0 1 0 143.8208 87.2192 84.0192 84.0192 0 0 1 115.5072-28.288 83.9936 83.9936 0 0 1 28.3136 115.456 168.1408 168.1408 0 0 1-230.9888 56.6784 168.2432 168.2432 0 0 1-56.6528-231.0656" fill="#003F87" p-id="33539"></path><path d="M175.872 391.1168l-21.8624-14.7456L248.576 236.288l21.8624 14.7456zM209.5104 413.8496l-21.8112-14.7456 94.6176-140.032 21.8368 14.7456zM243.3536 436.6336l-21.8624-14.72 94.3104-140.2112 21.8624 14.72zM758.784 667.0592l-21.8624-14.7712 43.776-64.8448 21.8624 14.7456zM708.096 742.3488l-21.8624-14.72 43.6992-64.9216 21.8624 14.72zM792.3968 689.8176l-21.8112-14.7456 43.8272-64.8704 21.8368 14.7456zM741.7088 764.9792l-21.8368-14.7968 43.9552-64.7936 21.8368 14.7968zM826.1888 712.5248l-21.8368-14.72 43.7248-64.9216 21.8368 14.6944zM775.5008 787.6864l-21.8624-14.6944 43.648-64.9472 21.8624 14.6944zM836.096 399.2064l-21.8368 14.6944-94.208-140.288 21.8624-14.6688zM819.2768 301.1328l-21.8368 14.7712-43.8272-64.8448 21.8368-14.7456zM869.9648 376.3968l-21.8112 14.7456-43.8528-64.8192 21.8112-14.7456zM751.872 346.624l-21.8112 14.72-43.776-64.9472 21.8624-14.72zM802.56 421.888l-21.7856 14.6944-43.776-64.9216 21.7856-14.6944zM337.792 727.552l-21.8112 14.72-94.5152-140.0832 21.8368-14.72zM270.3616 772.992l-21.7856 14.6944-94.4896-140.0832 21.7856-14.6944zM253.4144 675.072l-21.888 14.7712-43.776-64.9216 21.888-14.7456zM304.0768 750.2336l-21.8368 14.6944-43.6736-64.896 21.8368-14.72z" fill="" p-id="33540"></path></svg>