<?xml version="1.0" standalone="no"?><!DOCTYPE svg PUBLIC "-//W3C//DTD SVG 1.1//EN" "http://www.w3.org/Graphics/SVG/1.1/DTD/svg11.dtd"><svg t="1544968562465" class="icon" style="" viewBox="0 0 1024 1024" version="1.1" xmlns="http://www.w3.org/2000/svg" p-id="1107" xmlns:xlink="http://www.w3.org/1999/xlink" width="128" height="128"><defs><style type="text/css"></style></defs><path d="M1024 853.3248v-2.176 2.176z" fill="#231F20" p-id="1108"></path><path d="M0 170.6752h1024v682.6752H0z" fill="#DE2910" p-id="1109"></path><path d="M171.4944 247.7312l21.6064 66.5088h69.9392l-56.6016 41.1392 21.6064 66.56-56.5504-41.1392-56.6016 41.1392 21.6064-66.56-56.6016-41.1392h69.9648zM353.792 212.992l-1.4336 22.9888 21.3504 8.4992-22.2976 5.6832-1.5104 22.9888-12.288-19.456-22.3232 5.6832 14.72-17.7152-12.2624-19.4304 21.3504 8.4992zM432.3584 287.5392l-10.496 20.5056 16.2304 16.2816-22.6816-3.6608-10.5728 20.5312-3.4816-22.7584-22.7584-3.6608 20.5056-10.3936-3.5072-22.7328 16.2048 16.3072zM408.7552 380.8512l7.04 21.888 23.0656 0.0256-18.6624 13.4912 7.0912 21.9392-18.5856-13.568-18.6624 13.5424 7.168-21.9136-18.6112-13.5168 23.0144 0.0256zM353.6384 451.0976l-1.4848 22.9632 21.4016 8.5248-22.3488 5.6832-1.4592 22.9888-12.288-19.4816-22.3488 5.6832 14.6944-17.6896-12.2624-19.4816 21.4016 8.5504z" fill="#FFDE00" p-id="1110"></path></svg>