<?xml version="1.0" standalone="no"?><!DOCTYPE svg PUBLIC "-//W3C//DTD SVG 1.1//EN" "http://www.w3.org/Graphics/SVG/1.1/DTD/svg11.dtd"><svg t="1544968771863" class="icon" style="" viewBox="0 0 1024 1024" version="1.1" xmlns="http://www.w3.org/2000/svg" p-id="25142" xmlns:xlink="http://www.w3.org/1999/xlink" width="128" height="128"><defs><style type="text/css"></style></defs><path d="M512 443.8272m-85.9392 0a85.9392 85.9392 0 1 0 171.8784 0 85.9392 85.9392 0 1 0-171.8784 0Z" fill="#1B246C" p-id="25143"></path><path d="M544.9984 444.544a32.8448 32.8448 0 1 1-65.6896 0 32.8448 32.8448 0 0 1 65.6896 0z m-41.7024-40.448h17.4336L512 376.6272l-8.704 27.4688z m17.408 79.4368h-17.408l8.704 27.4688 8.704-27.4688z m-36.096-69.76l15.0784-8.704-21.2736-19.4304 6.1952 28.1344z m54.784 60.0832l-15.0784 8.704 21.2736 19.4304-6.1952-28.1344z m-66.1504-42.368l8.704-15.0784-28.1344-6.1952 19.4304 21.2736z m77.5168 24.6528l-8.704 15.0784 28.1344 6.1952-19.4304-21.2736z m-78.4896-3.6096v-17.4336l-27.4688 8.704 27.4688 8.7296z m79.4624-17.4336v17.4336l27.4688-8.704-27.4688-8.7296z m-69.7856 36.1216l-8.704-15.0784-19.4304 21.2736 28.1344-6.1952z m60.1088-54.8096l8.704 15.0784 19.4304-21.2736-28.1344 6.1952z m-42.368 66.1504l-15.0784-8.704-6.1952 28.1344 21.2736-19.4304z m24.6272-77.4912l15.0784 8.704 6.1952-28.1344-21.2736 19.4304z" fill="#FFFFFF" p-id="25144"></path><path d="M512 229.5552c28.4928 0 55.552 8.192 78.2592 23.6544 24.4224 16.64 42.4448 41.216 52.1472 71.0912l5.1968 16h16.8192c31.4112 0 60.3648 9.5488 83.712 27.6224 21.7344 16.8192 37.888 40.0384 46.6944 67.1232s9.3696 55.3472 1.6896 81.7408c-8.2688 28.3648-26.0864 53.0944-51.4816 71.5776l-13.5936 9.8816 5.1968 16c14.0032 43.0848 7.5008 86.3488-18.2784 121.8304a143.7184 143.7184 0 0 1-49.4336 42.5728 137.2928 137.2928 0 0 1-63.2832 15.8208c-28.1344 0-55.808-9.3184-80.0512-26.9056L512 757.6576l-13.5936 9.8816c-24.2432 17.6128-51.9168 26.9056-80.0512 26.9056a137.3696 137.3696 0 0 1-63.2832-15.8208 143.7184 143.7184 0 0 1-49.4336-42.5728c-25.7792-35.4816-32.256-78.7456-18.2528-121.8304l5.1968-16-13.5936-9.8816c-25.3952-18.4576-43.2128-43.2128-51.4816-71.552a138.1632 138.1632 0 0 1 1.6896-81.7408 138.3424 138.3424 0 0 1 46.6944-67.1232c23.3728-18.0736 52.3264-27.6224 83.712-27.6224h16.8192l5.1968-16c9.7024-29.8752 27.7248-54.4512 52.1472-71.0912A137.984 137.984 0 0 1 512 229.5552m0-23.1424c-64.2304 0-128.4352 36.9152-152.4224 110.7456-155.264 0-219.8016 198.6816-94.208 289.92-36.5568 112.4864 52.8128 210.5344 152.9856 210.5344 31.3344 0 63.7184-9.6 93.6448-31.3344 29.9264 21.7344 62.3104 31.3344 93.6448 31.3344 100.1728 0 189.5168-98.048 152.9856-210.5344 125.5936-91.264 61.056-289.92-94.208-289.92-23.9872-73.856-88.192-110.7456-152.4224-110.7456z" fill="#1E266B" p-id="25145"></path><path d="M512 272.9984c24.7296 0 48.256 7.1168 67.9936 20.5824 21.2736 14.4896 36.9664 35.8656 45.3888 61.7984l2.8928 8.8832h9.344c27.264 0 52.4544 8.32 72.8064 24.064a120.0896 120.0896 0 0 1 40.6016 58.3168c7.6544 23.5264 8.1408 48.0768 1.4336 71.04-7.2192 24.704-22.6816 46.2336-44.7488 62.2592l-7.552 5.4784 2.8928 8.8832c12.16 37.4528 6.5024 75.0848-15.9488 105.984a124.6464 124.6464 0 0 1-42.88 36.9408 119.4752 119.4752 0 0 1-55.04 13.7472c-24.4992 0-48.5888-8.0896-69.632-23.3728L512 722.1504l-7.552 5.4784c-21.0432 15.2832-45.1328 23.3728-69.632 23.3728a119.4752 119.4752 0 0 1-55.04-13.7472 124.6464 124.6464 0 0 1-42.88-36.9408c-22.4512-30.8992-28.1088-68.5312-15.9488-105.984l2.8928-8.8832-7.552-5.4784c-22.0672-16.0256-37.5296-37.5552-44.7488-62.2592a120.192 120.192 0 0 1 1.4336-71.04 120.2176 120.2176 0 0 1 40.6016-58.3168c20.352-15.744 45.5424-24.064 72.8064-24.064h9.344l2.8928-8.8832c8.4224-25.9328 24.1152-47.3088 45.3888-61.7984A119.8592 119.8592 0 0 1 512 272.9984m0-12.8768c-52.9408 0-105.856 30.4128-125.6192 91.264-127.9488 0-181.1712 163.7376-77.6448 238.9504-30.1312 92.6976 43.52 173.5168 126.08 173.5168 25.8304 0 52.5312-7.9104 77.184-25.8304 24.6784 17.92 51.3536 25.8304 77.184 25.8304 82.56 0 156.2112-80.8192 126.08-173.5168 103.5264-75.2128 50.3296-238.9504-77.6448-238.9504-19.7632-60.8256-72.6784-91.264-125.6192-91.264z" fill="#CE3F24" p-id="25146"></path><path d="M500.224 649.8304a38.8608 38.8608 0 0 1-38.5024 34.4064 38.656 38.656 0 0 1-38.528-38.7584c0-16.2816 10.0864-30.2592 24.32-35.9424 0.512-2.0736 0.768-4.1472 0.768-6.4768v-1.8176a46.1568 46.1568 0 0 0-32.8448 44.2112c0 25.8304 20.6848 46.5152 46.2848 46.5152 23.7824 0 43.4176-17.8432 46.0032-40.832-2.56-0.2304-5.1712-0.512-7.5008-1.3056M459.648 606.9248h2.0736c18.6112 0 34.0992 13.184 37.7344 30.5152 2.8416 1.0496 5.4272 1.8176 8.2688 2.0736a46.336 46.336 0 0 0-46.0032-40.32h-2.0736c0.256 1.28 0.256 2.6112 0.256 3.8656 0 1.3056 0 2.5856-0.256 3.8656" fill="#FCB131" p-id="25147"></path><path d="M413.3888 645.4528c0-1.28 0-2.5856 0.256-3.8912h-2.048a38.656 38.656 0 0 1-38.784-38.5024 38.656 38.656 0 0 1 77.2864 0c0 16.2816-10.0608 30.2592-24.5504 35.9424-0.256 2.0736-0.512 4.3776-0.512 6.4512v2.048a46.5152 46.5152 0 0 0 32.8448-44.4672c0-25.6-20.6848-46.5152-46.2592-46.5152-25.856 0-46.5408 20.9152-46.5408 46.5152s20.6848 46.2592 46.5408 46.2592h2.048c-0.2816-1.2544-0.2816-2.5344-0.2816-3.84" fill="#0081C4" p-id="25148"></path><path d="M473.6 598.656a38.912 38.912 0 0 1 38.528-34.3808 38.656 38.656 0 0 1 38.528 38.7584c0 16.2816-10.0608 30.2336-24.2944 35.9424-0.512 2.0736-0.768 4.3776-0.768 6.4512v2.0736a46.5152 46.5152 0 0 0 32.8192-44.4672c0-25.6-20.6848-46.5152-46.2848-46.5152-23.7824 0-43.4176 17.8176-46.0032 40.8576 2.56 0.256 5.1712 0.768 7.4752 1.28M513.92 645.4528c0-1.28 0-2.5856 0.256-3.8912h-2.0736a38.784 38.784 0 0 1-37.9904-30.4896 43.0336 43.0336 0 0 0-8.0384-2.0736 46.336 46.336 0 0 0 46.0032 40.32h2.0736c-0.2304-1.28-0.2304-2.56-0.2304-3.8656" fill="" p-id="25149"></path><path d="M600.7808 649.8304a38.8352 38.8352 0 0 1-38.5024 34.4064 38.7328 38.7328 0 1 1-14.2336-74.7008c0.512-2.0736 0.7936-4.1472 0.7936-6.4768v-1.8176a46.1568 46.1568 0 0 0-32.8192 44.2112c0 25.8304 20.6848 46.5152 46.2592 46.5152 23.7824 0 43.4176-17.8432 46.0032-40.832a32.384 32.384 0 0 1-7.5008-1.3056M560.4608 603.0592c0 1.3056 0 2.5856-0.256 3.8656h2.0736c18.6112 0 34.1248 13.184 37.9904 30.7456 2.5856 0.7936 5.1712 1.5616 8.0128 1.8176a46.336 46.336 0 0 0-46.0032-40.32h-2.0736c0.256 1.3056 0.256 2.6112 0.256 3.8912" fill="#00A261" p-id="25150"></path><path d="M612.6848 556.544c-23.7824 0-43.4432 17.8176-46.0288 40.8576 2.5856 0.2304 5.1712 0.768 7.5008 1.28a38.8608 38.8608 0 0 1 38.528-34.3808 38.656 38.656 0 0 1 0 77.2608 38.8096 38.8096 0 0 1-38.016-30.4896 42.752 42.752 0 0 0-8.0128-2.0736 46.336 46.336 0 0 0 92.288-5.9648c0-25.5744-20.6848-46.4896-46.2592-46.4896" fill="#EE334E" p-id="25151"></path></svg>